<svg id="Слой_1" data-name="Слой 1" xmlns="http://www.w3.org/2000/svg" viewBox="0 0 658.61 471.46"
     style="stroke-width: 0px; background-color: blue;">
    <title>main_text</title>
    <text x="-333.58" y="-233.3"/>
    <rect width="100%" height="100%" style="fill:red">
        <path d="M333.58,254.84a21.21,21.21,0,0,1,6-15.39,20.29,20.29,0,0,1,15.21-6.15q9.54,0,15.24,5.46l-2.22,3.06a18,18,0,0,0-5.94-3.39,20.79,20.79,0,0,0-7-1.23,16.07,16.07,0,0,0-12.27,5,17.63,17.63,0,0,0-4.71,12.57,18.69,18.69,0,0,0,4.74,13A15.89,15.89,0,0,0,355.06,273a18.79,18.79,0,0,0,13.62-5.58l2.4,2.94a22.18,22.18,0,0,1-16.14,6.54q-9.48,0-15.42-6.33A22.13,22.13,0,0,1,333.58,254.84Z"
              transform="translate(-333.58 -233.3)" style="fill:transparent"/>
        <path d="M394.42,276.2V234h4.14v19.2H423V234h4.2V276.2H423V256.94H398.56V276.2h-4.14Z"
              transform="translate(-333.58 -233.3)" style="fill:#0a0101"/>
        <path d="M434.44,276.2L449.92,234h4.44l15.48,42.18h-4.38l-4.86-13.44h-17l-4.8,13.44h-4.38Zm10.44-17h14.46l-5.52-15.3-1.62-5.52h-0.12q-0.9,3.54-1.62,5.52Z"
              transform="translate(-333.58 -233.3)" style="fill:#0a0101"/>
        <path d="M475.54,276.2L478.9,234h4.26l11.1,24.78,2,5.16h0.12q1.08-3,2-5.16L509.56,234h4.26l3.36,42.18H513l-2.34-29.52-0.12-5.88h-0.12q-1.26,3.72-2.22,5.88l-10,21.66h-3.84l-9.9-21.66-2.28-6h-0.12q0.06,3.72-.12,6l-2.34,29.52h-4.14Z"
              transform="translate(-333.58 -233.3)" style="fill:#0a0101"/>
        <path d="M527.68,276.2V234h4.14v30.36l-0.36,5.7h0.12q2.22-3.72,3.66-5.82L556.6,234h4V276.2h-4.14V245.84l0.36-5.7h-0.12q-2.1,3.6-3.54,5.7L531.7,276.2h-4Z"
              transform="translate(-333.58 -233.3)" style="fill:#0a0101"/>
        <path d="M587.74,276.2V234h14.4a11.77,11.77,0,0,1,8.22,2.88,9.93,9.93,0,0,1,3.18,7.74q0,6.48-5.34,9.18v0.12a8.9,8.9,0,0,1,5.16,3.78,11.73,11.73,0,0,1,1.92,6.66,10.94,10.94,0,0,1-3.6,8.64,13.18,13.18,0,0,1-9.06,3.18H587.74Zm4.14-23.88h10.26a6.87,6.87,0,0,0,5.16-2,7.34,7.34,0,0,0,2-5.34,6.77,6.77,0,0,0-7.26-7.2H591.88v14.58Zm0,20.16h10.8a8.28,8.28,0,1,0-.06-16.56H591.88v16.56Z"
              transform="translate(-333.58 -233.3)" style="fill:#0a0101"/>
        <path d="M624.7,276.2V234h4.14v17h9.48a12.55,12.55,0,0,1,9,3.3q3.48,3.3,3.48,9.36a12.31,12.31,0,0,1-3.39,9.06,11.76,11.76,0,0,1-8.73,3.42h-14Zm4.14-3.72h9.24a8.27,8.27,0,0,0,6.21-2.31,8.86,8.86,0,0,0,2.25-6.45,9,9,0,0,0-2.34-6.54,8.25,8.25,0,0,0-6.18-2.4h-9.18v17.7Zm28.38,3.72V234h4.14V276.2h-4.14Z"
              transform="translate(-333.58 -233.3)" style="fill:#0a0101"/>
        <path d="M688.48,276.2V234h32.16V276.2H716.5V237.74H692.62V276.2h-4.14Z" transform="translate(-333.58 -233.3)"
              style="fill:#0a0101"/>
        <path d="M729.94,254.78a21.48,21.48,0,1,1,43,0,21.69,21.69,0,0,1-6.24,15.72,21.3,21.3,0,0,1-30.48,0A21.69,21.69,0,0,1,729.94,254.78Zm4.32,0a18.11,18.11,0,0,0,5,13,16.65,16.65,0,0,0,24.33,0,18.18,18.18,0,0,0,5-13,17.16,17.16,0,0,0-5-12.51,17.13,17.13,0,0,0-24.33,0A17.1,17.1,0,0,0,734.26,254.78Z"
              transform="translate(-333.58 -233.3)" style="fill:#0a0101"/>
        <path d="M778.12,271.46l2.46-3a13.72,13.72,0,0,0,4.56,3.33,13.3,13.3,0,0,0,5.7,1.29,10.72,10.72,0,0,0,7.2-2.4,8,8,0,0,0,2.82-6.42,7.37,7.37,0,0,0-2.55-5.94,9.55,9.55,0,0,0-6.39-2.16h-5.34v-3.6h4.26a9,9,0,0,0,6.12-2.19,7.1,7.1,0,0,0,2.52-5.61,7.62,7.62,0,0,0-2.1-5.49q-2.1-2.19-6.36-2.19a14.79,14.79,0,0,0-9.72,3.6l-1.92-3.24a18.39,18.39,0,0,1,12.06-4.14q5.7,0,9,3a10.34,10.34,0,0,1,3.3,8q0,6.6-6.3,9.54V254a10.3,10.3,0,0,1,5.64,3.69,10.64,10.64,0,0,1,2.1,6.69,11.39,11.39,0,0,1-4,9.09A15,15,0,0,1,791,276.92a18.72,18.72,0,0,1-7.17-1.44A14.82,14.82,0,0,1,778.12,271.46Z"
              transform="translate(-333.58 -233.3)" style="fill:#0a0101"/>
        <path d="M814.54,276.2V234h4.14v19.2H843.1V234h4.2V276.2h-4.2V256.94H818.68V276.2h-4.14Z"
              transform="translate(-333.58 -233.3)" style="fill:#0a0101"/>
        <path d="M854.56,276.2L870,234h4.44L890,276.2h-4.38l-4.86-13.44h-17l-4.8,13.44h-4.38Zm10.44-17h14.46l-5.52-15.3-1.62-5.52H872.2q-0.9,3.54-1.62,5.52Z"
              transform="translate(-333.58 -233.3)" style="fill:#0a0101"/>
        <path d="M897.28,276.2V234H921v3.72H901.42V253.1h16v3.72h-16v15.66h20.7v3.72H897.28Z"
              transform="translate(-333.58 -233.3)" style="fill:#0a0101"/>
        <path d="M941,276.2V237.74H925.84V234h34.44v3.72H945.1V276.2H941Z" transform="translate(-333.58 -233.3)"
              style="fill:#0a0101"/>
        <path d="M967.36,276.2V234h23.7v3.72H971.5V253.1h16v3.72h-16v15.66h20.7v3.72H967.36Z"
              transform="translate(-333.58 -233.3)" style="fill:#0a0101"/>
        <path d="M372.52,367.26H377q5.46-9.48,5.46-23.82V333.3h29v34h4.8V384.6H407v-8.4H382.18v8.4h-9.66V367.26Zm15.18,0H401v-25h-8.58v2a69.5,69.5,0,0,1-1.11,12.18A35.91,35.91,0,0,1,387.7,367.26Z"
              transform="translate(-333.58 -233.3)" style="fill:#0a0101"/>
        <path d="M419.26,370.38l5.46-6.9q4.38,4.26,9.12,4.26,5.64,0,5.64-4.8,0-4.2-5-4.2h-5.16V350.4h4.2a5.11,5.11,0,0,0,3.63-1.26,4,4,0,0,0,1.35-3.06,4.21,4.21,0,0,0-1.35-3.27,5.28,5.28,0,0,0-3.69-1.23,14.25,14.25,0,0,0-8.88,3.54l-4-7.5a22.49,22.49,0,0,1,14.88-5,16.84,16.84,0,0,1,6.39,1.23,12.26,12.26,0,0,1,5.19,4.08,11,11,0,0,1,2.16,6.81q0,6.06-5.58,9.36v0.12a9.64,9.64,0,0,1,6.72,9.54,11.71,11.71,0,0,1-4.44,9.63A16.78,16.78,0,0,1,435,376.92,21.05,21.05,0,0,1,419.26,370.38Z"
              transform="translate(-333.58 -233.3)" style="fill:#0a0101"/>
        <path d="M457,376.2V333.3h26.88v9H467.5v7.8h13.08v9H467.5v8.1h17.22v9H457Z"
              transform="translate(-333.58 -233.3)"
              style="fill:#0a0101"/>
        <path d="M491.56,376.2V333.3h10.5v17.16h15.6V333.3h10.5v42.9h-10.5V359.4h-15.6v16.8h-10.5Z"
              transform="translate(-333.58 -233.3)" style="fill:#0a0101"/>
        <path d="M552.16,376.2V333.3H588.4v42.9H577.9v-34H562.66v34h-10.5Z" transform="translate(-333.58 -233.3)"
              style="fill:#0a0101"/>
        <path d="M595.06,354.48a21,21,0,0,1,6.39-15.6,23.59,23.59,0,0,1,32.1,0,21,21,0,0,1,6.39,15.6A22.44,22.44,0,1,1,595.06,354.48Zm10.86,0a13.08,13.08,0,0,0,3.36,9.15,11,11,0,0,0,16.44,0,13.08,13.08,0,0,0,3.36-9.15,12.24,12.24,0,0,0-3.36-8.76,11.31,11.31,0,0,0-16.44,0A12.23,12.23,0,0,0,605.92,354.48Z"
              transform="translate(-333.58 -233.3)" style="fill:#0a0101"/>
        <path d="M646.6,376.2V333.3h10.5v20l-0.48,7.32h0.12a62.6,62.6,0,0,1,3.6-7.32l11.88-20h10.62v42.9h-10.5v-20l0.48-7.32H672.7a63,63,0,0,1-3.6,7.32l-11.94,20H646.6Z"
              transform="translate(-333.58 -233.3)" style="fill:#0a0101"/>
        <path d="M689.56,354.66a21.35,21.35,0,0,1,6.33-15.78q6.33-6.3,16.17-6.3a25.73,25.73,0,0,1,8.76,1.53,19.93,19.93,0,0,1,7.32,4.53l-4.86,7.92a18.28,18.28,0,0,0-5.07-3.15,14.52,14.52,0,0,0-5.67-1.23q-6,0-9.06,3.57a12.87,12.87,0,0,0-3.06,8.67,13.84,13.84,0,0,0,3.15,9.06q3.15,3.84,9,3.84,6.12,0,11.4-5.28l5.4,7.68a23.06,23.06,0,0,1-17.28,7.2q-10.2,0-16.35-6.27T689.56,354.66Z"
              transform="translate(-333.58 -233.3)" style="fill:#0a0101"/>
        <path d="M734.68,376.2V333.3h10.5v16.56h4.32l8.88-16.56h11.28l-11.58,20.52v0.12l12.24,22.26H758.56l-9.06-17.4h-4.32v17.4h-10.5Z"
              transform="translate(-333.58 -233.3)" style="fill:#0a0101"/>
        <path d="M772.84,354.48a21,21,0,0,1,6.39-15.6,23.59,23.59,0,0,1,32.1,0,21,21,0,0,1,6.39,15.6A22.44,22.44,0,1,1,772.84,354.48Zm10.86,0a13.08,13.08,0,0,0,3.36,9.15,11,11,0,0,0,16.44,0,13.08,13.08,0,0,0,3.36-9.15,12.24,12.24,0,0,0-3.36-8.76,11.31,11.31,0,0,0-16.44,0A12.23,12.23,0,0,0,783.7,354.48Z"
              transform="translate(-333.58 -233.3)" style="fill:#0a0101"/>
        <path d="M824.38,376.2V333.3h15.78q6.6,0,10.59,2.91a9.67,9.67,0,0,1,4,8.31,11.05,11.05,0,0,1-1.32,5.25,9.61,9.61,0,0,1-3.66,3.87v0.12a8.49,8.49,0,0,1,5.07,3.75,11.23,11.23,0,0,1,1.65,5.91q0,6.54-4.62,9.66t-11.7,3.12H824.38Zm10.5-26.28h5.4a3.48,3.48,0,0,0,2.82-1.14,4.23,4.23,0,0,0,1-2.82,3.63,3.63,0,0,0-1-2.64,4,4,0,0,0-3-1h-5.22v7.62Zm0,17.28h6.3a4.36,4.36,0,0,0,3.36-1.29,4.53,4.53,0,0,0,1.2-3.21,4.46,4.46,0,0,0-1.14-3.15,4.36,4.36,0,0,0-3.36-1.23h-6.36v8.88Z"
              transform="translate(-333.58 -233.3)" style="fill:#0a0101"/>
        <path d="M860.86,354.48a21,21,0,0,1,6.39-15.6,23.59,23.59,0,0,1,32.1,0,21,21,0,0,1,6.39,15.6A22.44,22.44,0,1,1,860.86,354.48Zm10.86,0a13.08,13.08,0,0,0,3.36,9.15,11,11,0,0,0,16.44,0,13.09,13.09,0,0,0,3.36-9.15,12.24,12.24,0,0,0-3.36-8.76,11.31,11.31,0,0,0-16.44,0A12.23,12.23,0,0,0,871.72,354.48Z"
              transform="translate(-333.58 -233.3)" style="fill:#0a0101"/>
        <path d="M912.4,376.2V333.3h10.5v20l-0.48,7.32h0.12a62.6,62.6,0,0,1,3.6-7.32l11.88-20h10.62v42.9h-10.5v-20l0.48-7.32H938.5a63,63,0,0,1-3.6,7.32L923,376.2H912.4Zm18.72-44.82a13.16,13.16,0,0,1-8.1-2.46,7.93,7.93,0,0,1-3.3-6.72v-0.66h7.68v0.72a3.2,3.2,0,0,0,1.11,2.64,4.19,4.19,0,0,0,5.19,0,3.16,3.16,0,0,0,1.14-2.64v-0.72h7.62v0.66a7.93,7.93,0,0,1-3.3,6.72A13.07,13.07,0,0,1,931.12,331.38Z"
              transform="translate(-333.58 -233.3)" style="fill:#0a0101"/>
        <path d="M421,454.48a21,21,0,0,1,6.39-15.6,23.59,23.59,0,0,1,32.1,0,21,21,0,0,1,6.39,15.6A22.44,22.44,0,1,1,421,454.48Zm10.86,0a13.08,13.08,0,0,0,3.36,9.15,11,11,0,0,0,16.44,0,13.08,13.08,0,0,0,3.36-9.15,12.24,12.24,0,0,0-3.36-8.76,11.31,11.31,0,0,0-16.44,0A12.23,12.23,0,0,0,431.86,454.48Z"
              transform="translate(-333.58 -233.3)" style="fill:#0a0101"/>
        <path d="M472.54,476.2V433.3h36.24v42.9h-10.5v-34H483v34h-10.5Z" transform="translate(-333.58 -233.3)"
              style="fill:#0a0101"/>
        <path d="M527.08,476.2V442.3h-13v-9H550.6v9h-13v33.9h-10.5Z" transform="translate(-333.58 -233.3)"
              style="fill:#0a0101"/>
        <path d="M555.88,476.2V433.3h10.5v20l-0.48,7.32H566a62.54,62.54,0,0,1,3.6-7.32l11.88-20h10.62v42.9h-10.5v-20l0.48-7.32H582a63,63,0,0,1-3.6,7.32l-11.94,20H555.88Z"
              transform="translate(-333.58 -233.3)" style="fill:#0a0101"/>
        <path d="M599.44,476.2L603,433.3h11.4l6.24,18.12,2.16,7.08h0.12q1.2-4.32,2.16-7.08l6.24-18.12h11.4l3.48,42.9h-10.5l-1.32-19.32q-0.12-1.44-.12-3.24t0.06-2.88l0.06-1.08h-0.12q-1.44,4.5-2.4,7.2l-4.5,12.42h-9l-4.5-12.42-2.4-7.2h-0.12a54.21,54.21,0,0,1,0,7.2L610,476.2H599.44Z"
              transform="translate(-333.58 -233.3)" style="fill:#0a0101"/>
        <path d="M653.56,476.2V433.3h10.5v20l-0.48,7.32h0.12a62.54,62.54,0,0,1,3.6-7.32l11.88-20H689.8v42.9H679.3v-20l0.48-7.32h-0.12a63,63,0,0,1-3.6,7.32l-11.94,20H653.56Z"
              transform="translate(-333.58 -233.3)" style="fill:#0a0101"/>
        <path d="M695.2,470.38l5.46-6.9q4.38,4.26,9.12,4.26,5.64,0,5.64-4.8,0-4.2-5-4.2h-5.16V450.4h4.2a5.11,5.11,0,0,0,3.63-1.26,4,4,0,0,0,1.35-3.06,4.21,4.21,0,0,0-1.35-3.27,5.28,5.28,0,0,0-3.69-1.23,14.25,14.25,0,0,0-8.88,3.54l-4-7.5a22.5,22.5,0,0,1,14.88-5,16.84,16.84,0,0,1,6.39,1.23,12.26,12.26,0,0,1,5.19,4.08,11,11,0,0,1,2.16,6.81q0,6.06-5.58,9.36v0.12a9.64,9.64,0,0,1,6.72,9.54,11.71,11.71,0,0,1-4.44,9.63,16.78,16.78,0,0,1-10.86,3.57A21.05,21.05,0,0,1,695.2,470.38Z"
              transform="translate(-333.58 -233.3)" style="fill:#0a0101"/>
        <path d="M728.26,476.2l14.58-42.9h11l14.58,42.9h-10.8l-2.64-9H741.64l-2.58,9h-10.8Zm15.84-17.4h8.46l-2.4-8.34-1.74-7.38H748.3q-1,4.68-1.74,7.38Z"
              transform="translate(-333.58 -233.3)" style="fill:#0a0101"/>
        <path d="M772.78,476.2V433.3h10.5v34h14.88v-34h10.5v34h5.28V484.6h-9.3v-8.4H772.78Z"
              transform="translate(-333.58 -233.3)" style="fill:#0a0101"/>
        <path d="M820.36,476.2V433.3h10.5v20l-0.48,7.32h0.12a62.54,62.54,0,0,1,3.6-7.32l11.88-20H856.6v42.9H846.1v-20l0.48-7.32h-0.12a63,63,0,0,1-3.6,7.32l-11.94,20H820.36Z"
              transform="translate(-333.58 -233.3)" style="fill:#0a0101"/>
        <path d="M865.6,476.2V433.3h10.5v20l-0.48,7.32h0.12a62.53,62.53,0,0,1,3.6-7.32l11.88-20h10.62v42.9h-10.5v-20l0.48-7.32H891.7a62.88,62.88,0,0,1-3.6,7.32l-11.94,20H865.6Z"
              transform="translate(-333.58 -233.3)" style="fill:#0a0101"/>
    </rect>
</svg>