<svg xmlns="http://www.w3.org/2000/svg"><defs>
        <clipPath id="a" transform="translate(-60 -60.87)">
            <path fill="none" d="M60 60h378.96v380.88H60z"/>
        </clipPath>
    </defs><symbol id="icon-arrow" viewBox="0 0 11.64 19.25">
    <title>
        arrow
    </title>
    <path d="M11.24 8.56l-9-8.21C1.01-.78-.83 1.05.41 2.18l8 7.31-8 7.56c-1.22 1.15.62 3 1.83 1.83l9-8.49a1.3 1.3 0 0 0 0-1.83z"/>
</symbol><symbol id="icon-done" viewBox="0 0 66.83 72.83">
    <title>
        done
    </title>
    <path d="M39 72.83H27L0 36.67h12l27 36.16z"/>
    <path d="M39.83 72.83h-12L54.83 0h12l-27 72.83z"/>
</symbol><symbol id="icon-for-1" viewBox="0 0 392.96 398">
    <title>
        for-1
    </title>
    <path d="M264.92 398c-19.28 0-35.56-16.65-35.56-36.36 0-20 16-36.36 35.56-36.36 19.27 0 35.56 16.65 35.56 36.36S284.2 398 264.92 398zm0-50.16c-6.84 0-12.84 6.41-12.84 13.72 0 7.82 5.52 13.72 12.84 13.72 6.84 0 12.84-6.41 12.84-13.72s-6-13.72-12.84-13.72z"/>
    <path d="M264.92 397c-18.73 0-34.56-16.19-34.56-35.36 0-19.5 15.5-35.36 34.56-35.36 18.73 0 34.56 16.19 34.56 35.36S283.65 397 264.92 397zm0-50.16c-7.37 0-13.84 6.88-13.84 14.72 0 8.39 6 14.72 13.84 14.72 7.37 0 13.84-6.88 13.84-14.72s-6.47-14.72-13.84-14.72z"/>
    <path d="M264.92 396c-18.19 0-33.56-15.73-33.56-34.36 0-18.95 15.06-34.36 33.56-34.36 18.19 0 33.56 15.73 33.56 34.36S283.11 396 264.92 396zm0-50.16c-7.91 0-14.84 7.34-14.84 15.72 0 9 6.38 15.72 14.84 15.72 7.91 0 14.84-7.35 14.84-15.72s-6.93-15.72-14.84-15.72z"/>
    <path d="M264.92 328.28c-18.32 0-32.56 15-32.56 33.36S247.4 395 264.92 395s32.56-15 32.56-33.36-15-33.36-32.56-33.36zm0 50c-9.2 0-15.84-7.52-15.84-16.72s7.52-16.72 15.84-16.72 15.84 7.52 15.84 16.72-7.52 16.72-15.84 16.72zm0 0"/>
    <path d="M87.24 398c-19.27 0-35.56-16.65-35.56-36.36 0-20 16-36.36 35.56-36.36 19.28 0 35.56 16.65 35.56 36.36 0 20.05-15.95 36.36-35.56 36.36zm0-50.16c-6.84 0-12.84 6.41-12.84 13.72 0 7.82 5.52 13.72 12.84 13.72 7 0 12.84-6.28 12.84-13.72 0-7.82-5.52-13.72-12.84-13.72z"/>
    <path d="M87.24 397c-18.73 0-34.56-16.19-34.56-35.36 0-19.5 15.5-35.36 34.56-35.36 18.73 0 34.56 16.19 34.56 35.36 0 19.5-15.5 35.36-34.56 35.36zm0-50.16c-7.37 0-13.84 6.88-13.84 14.72 0 8.39 5.95 14.72 13.84 14.72 7.5 0 13.84-6.74 13.84-14.72 0-8.39-5.95-14.72-13.84-14.72z"/>
    <path d="M87.24 396c-18.19 0-33.56-15.73-33.56-34.36 0-18.95 15.05-34.36 33.56-34.36 18.19 0 33.56 15.73 33.56 34.36 0 18.95-15.06 34.36-33.56 34.36zm0-50.16c-7.91 0-14.84 7.34-14.84 15.72 0 9 6.38 15.72 14.84 15.72 8 0 14.84-7.2 14.84-15.72 0-8.96-6.38-15.72-14.84-15.72z"/>
    <path d="M87.24 328.28c-18.32 0-32.56 15-32.56 33.36S69.68 395 87.24 395c18.32 0 32.56-15 32.56-33.36s-15-33.36-32.56-33.36zm0 50c-9.2 0-15.84-7.52-15.84-16.72s7.52-16.72 15.84-16.72c9.2 0 15.84 7.52 15.84 16.72s-7.44 16.72-15.84 16.72zm0 0"/>
    <path d="M69.72 321.28c-25.05 0-44.68-20.36-44.68-46.36 0-21.65 14.09-39.74 34.41-44.39L.16 54.84a3 3 0 0 1 2.84-4h325l12.39-48.62a3 3 0 0 1 2.91-2.26H390a3 3 0 0 1 3 3V19.6a3 3 0 0 1-3 3h-31l-58.7 227.15a3 3 0 0 1-2.9 2.25H69.72c-12.15 0-22 10.64-22 23.72 0 13.3 9.68 23.72 22 23.72H296.6a3 3 0 0 1 3 3v15.84a3 3 0 0 1-3 3H69.72zm212.87-91.92l39.36-155.84H30.53l52.23 155.84h199.82z"/>
    <path d="M69.72 320.28c-24.49 0-43.68-19.92-43.68-45.36 0-21.56 14.46-39.55 34.72-43.65L1.1 54.52A2 2 0 0 1 3 51.88h325.8l12.58-49.37A2 2 0 0 1 343.32 1H390a2 2 0 0 1 2 2v16.64a2 2 0 0 1-2 2h-31.85L299.33 249.5a2 2 0 0 1-1.94 1.5H69.72c-12.7 0-23 11.09-23 24.72 0 13.86 10.12 24.72 23 24.72H296.6a2 2 0 0 1 2 2v15.84a2 2 0 0 1-2 2H69.72zm213.65-89.92l39.87-157.84H29.14L82 230.36h201.36z"/>
    <path d="M69.72 319.28c-23.93 0-42.68-19.49-42.68-44.36 0-21.47 14.66-39.32 35-42.88L2.04 54.2a1 1 0 0 1 .95-1.32h326.59l12.77-50.13a1 1 0 0 1 1-.75H390a1 1 0 0 1 1 1v16.64a1 1 0 0 1-1 1h-32.62l-59 228.61a1 1 0 0 1-1 .75H69.72c-13.25 0-24 11.54-24 25.72 0 14.42 10.56 25.72 24 25.72H296.6a1 1 0 0 1 1 1v15.84a1 1 0 0 1-1 1H69.72zm214.42-87.92l40.37-159.84H27.75l53.57 159.84h202.82z"/>
    <path d="M343.32 3l-13 50.88H3l60.4 179c-20.24 3-35.36 20.08-35.36 42.08 0 24.16 18.32 43.36 41.68 43.36H296.6v-15.88H69.72c-14.16 0-25-11.68-25-26.72S56.4 249 69.72 249H297.4l59.2-229.36H390V3h-46.68zm-58.4 229.36H80.6L26.36 70.52H325.8zm0 0"/>
    <rect x="105.92" y="106.72" width="22.72" height="100.24" rx="3" ry="3"/>
    <rect x="106.92" y="107.72" width="20.72" height="98.24" rx="2" ry="2"/>
    <rect x="107.92" y="108.72" width="18.72" height="96.24" rx="1" ry="1"/>
    <path d="M108.92 109.72h16.72v94.24h-16.72z"/>
    <rect x="165.2" y="106.72" width="22.72" height="100.24" rx="3" ry="3"/>
    <rect x="166.2" y="107.72" width="20.72" height="98.24" rx="2" ry="2"/>
    <rect x="167.2" y="108.72" width="18.72" height="96.24" rx="1" ry="1"/>
    <path d="M168.2 109.72h16.72v94.24H168.2z"/>
    <rect x="224.4" y="106.72" width="22.72" height="100.24" rx="3" ry="3"/>
    <rect x="225.4" y="107.72" width="20.72" height="98.24" rx="2" ry="2"/>
    <rect x="226.4" y="108.72" width="18.72" height="96.24" rx="1" ry="1"/>
    <path d="M227.4 109.72h16.72v94.24H227.4z"/>
</symbol><symbol id="icon-for-2" viewBox="0 0 370.4 433.1">
    <title>
        for-2
    </title>
    <path d="M364.4 381.9a6 6 0 0 0 6-6v-25.6V349.87a6.1 6.1 0 0 0-.11-.84v-.07a5.52 5.52 0 0 0-.25-.81v-.09a6.29 6.29 0 0 0-.37-.77l-.08-.12a6.07 6.07 0 0 0-.5-.7v-.05a6 6 0 0 0-.58-.59l-.11-.09a5.71 5.71 0 0 0-.7-.51h-.06l-22.84-13.85v-6.68a6 6 0 0 0-6-6h-14.89l-120.19-73a25.12 25.12 0 0 0-8.9-40.32 6.4 6.4 0 0 1-3.63-6v-3.82a25.24 25.24 0 0 0 19.2-24.47V151.5h.4a6 6 0 0 0 6-6v-25.6a6 6 0 0 0-6-6H204v-.4a18.82 18.82 0 0 0-12.8-17.8V6a6 6 0 1 0-12 0v89.7a18.83 18.83 0 0 0-12.8 17.81v.4h-6.8a6 6 0 0 0-6 6v25.6a6 6 0 0 0 6 6h.4v19.6a25.24 25.24 0 0 0 19.2 24.47v3.82a18.26 18.26 0 0 0 11 17.1 13.17 13.17 0 0 1 2.85 22.77l-4.77-2.89a6 6 0 0 0-6.23 0l-4.77 2.89c-.2-.15-.41-.29-.6-.45A13.18 13.18 0 0 1 172 228.7a6 6 0 0 0-12 0 25.12 25.12 0 0 0 6.65 17l-120.17 73H31.6a6 6 0 0 0-6 6v6.68L2.89 345.17h-.06a6.16 6.16 0 0 0-.7.51l-.11.09a5.89 5.89 0 0 0-.58.59v.05a5.42 5.42 0 0 0-.5.7l-.08.12a6 6 0 0 0-.38.77v.09a5.71 5.71 0 0 0-.25.8v.07a6 6 0 0 0-.11.84v26.03a6 6 0 0 0 6 6h19.6v13.6H6a6 6 0 0 0-6 6v25.6a6 6 0 0 0 6 6h358.4a6 6 0 0 0 6-6V401.5a6 6 0 0 0-6-6h-19.6v-13.6h19.6zm-186-268.4a6.8 6.8 0 0 1 13.6 0v.4h-13.62v-.4zm-12.8 12.4h39.2v13.6h-39.2v-13.6zm6.4 45.2v-19.6h26.4v19.6a13.2 13.2 0 1 1-26.4 0zm147.2 173.2v-13.6h1.36l12.25 7.43v6.17H319.2zm-25.6 0v-13.6h13.6v13.6h-13.6zm-25.6 0v-13.6h13.6v13.6H268zm-25.6 0v-13.6H256v13.6h-13.6zm-25.6 0v-13.6h13.6v13.6h-13.6zm-25.6 0v-13.6h13.6v13.6h-13.6zm-25.6 0v-13.6h13.6v13.6h-13.6zm-25.6 0v-13.6h13.6v13.6H140zm-25.6 0v-13.6H128v13.6h-13.6zm-25.6 0v-13.6h13.6v13.6H88.8zm-25.6 0v-13.6h13.6v13.6H63.2zm-25.6 0v-6.17l12.24-7.43h1.35v13.6H37.6zm140.46-91.45a25.36 25.36 0 0 0 7.18 1 26 26 0 0 0 4.48-.39 23.94 23.94 0 0 0 2.64-.64l108.43 65.88H69.61zM12 356.3h346.4v13.6H12v-13.6zm281.6 39.2v-13.6h13.6v13.6h-13.6zm-25.6 0v-13.6h13.6v13.6H268zm-25.6 0v-13.6H256v13.6h-13.6zm-25.6 0v-13.6h13.6v13.6h-13.6zm-25.6 0v-13.6h13.6v13.6h-13.6zm-25.6 0v-13.6h13.6v13.6h-13.6zm-25.6 0v-13.6h13.6v13.6H140zm-25.6 0v-13.6H128v13.6h-13.6zm-25.6 0v-13.6h13.6v13.6H88.8zm-25.6 0v-13.6h13.6v13.6H63.2zm-25.6-13.6h13.6v13.6H37.6v-13.6zm320.8 39.2H12v-13.6h346.4v13.6zm-25.6-25.6h-13.6v-13.6h13.6v13.6zm0 0"/>
</symbol><symbol id="icon-for-3" viewBox="0 0 365.98 338.78">
    <title>
        for-3
    </title>
    <path d="M317.49 138.32a48.42 48.42 0 0 0-7.9.65V71a71.09 71.09 0 0 0-71-71H127.41a71.09 71.09 0 0 0-71 71v68a48.49 48.49 0 0 0-35.33 87.83v63.54A29.19 29.19 0 0 0 38.27 317v12.81a9 9 0 0 0 9 9h45.64a9 9 0 0 0 9-9v-10.26h162.16v10.23a9 9 0 0 0 9 9h45.64a9 9 0 0 0 9-9V317a29.19 29.19 0 0 0 17.21-26.63V226.8a48.49 48.49 0 0 0-27.43-88.48zM269 285.71v15.84H97v-15.84h172zM326.92 222v68.32a11.23 11.23 0 0 1-11.21 11.21H287V186.81a30.49 30.49 0 1 1 44.7 27 9 9 0 0 0-4.78 7.57c-.01.22-.01.45 0 .62zM74.39 145.85V71a53.07 53.07 0 0 1 53-53h111.18a53.07 53.07 0 0 1 53 53v74.84a48.88 48.88 0 0 0-22.59 41v15.11H97v-15.14a48.88 48.88 0 0 0-22.61-40.96zM97 267.71v-47.79h172v47.79H97zm-62.71-53.93a30.49 30.49 0 1 1 44.71-27v114.77H50.28a11.23 11.23 0 0 1-11.21-11.21v-68.16-.8a9 9 0 0 0-4.79-7.59z"/>
    <path d="M124.79 85.32a12 12 0 1 0 0-24 12 12 0 1 0 0 24z"/>
    <path d="M183 85.32a12 12 0 1 0-8.5-3.53 12.09 12.09 0 0 0 8.5 3.53z"/>
    <path d="M241.19 85.32a12 12 0 1 0-8.49-3.52 12.08 12.08 0 0 0 8.49 3.52z"/>
    <path d="M124.79 141.72a12 12 0 1 0 0-24 12 12 0 1 0 0 24z"/>
    <path d="M183 141.72a12 12 0 1 0-8.5-3.53 12.08 12.08 0 0 0 8.5 3.53z"/>
    <path d="M241.19 141.72a12 12 0 1 0-8.49-3.52 12.09 12.09 0 0 0 8.49 3.52z"/>
</symbol><symbol id="icon-for-4" viewBox="0 0 147.2 198.9">
    <title>
        for-4
    </title>
    <path d="M142.4 117.75h-17.78L111 45.92a4.8 4.8 0 0 0-4.72-3.91h-20.6a4.8 4.8 0 0 0-4.7 3.82L70.09 97.98 62.4 57.46a4.8 4.8 0 0 0-4.72-3.91H40.23a4.8 4.8 0 0 0-4.7 3.82l-12.6 60.38H4.8a4.8 4.8 0 0 0-4.8 4.8v71.47a4.8 4.8 0 0 0 4.8 4.8H47a4.71 4.71 0 0 0 .92.09h51.33a5 5 0 0 0 .92-.09h42.23a4.8 4.8 0 0 0 4.8-4.8v-71.47a4.8 4.8 0 0 0-4.8-4.8zm-89.66 71.56v-17.33h41.74v17.33H52.73zm84.87-.09h-33.54v-17.24h2a4.8 4.8 0 0 0 0-9.6H41.14a4.8 4.8 0 1 0 0 9.6h2v17.24H9.6v-61.87h128v61.87zM53.71 63.16l10.36 54.59H32.73l11.39-54.59h9.59zm48.59-11.54l12.55 66.13H75.77l13.8-66.13h12.73zm0 0"/>
    <path d="M29.62 138.67h-6.89a4.8 4.8 0 0 0 0 9.6h6.89a4.8 4.8 0 0 0 0-9.6zm0 0"/>
    <path d="M53.33 138.67h-6.89a4.8 4.8 0 0 0 0 9.6h6.89a4.8 4.8 0 0 0 0-9.6zm0 0"/>
    <path d="M77 138.67h-6.89a4.8 4.8 0 0 0 0 9.6H77a4.8 4.8 0 0 0 0-9.6zm0 0"/>
    <path d="M100.76 138.67h-6.89a4.8 4.8 0 0 0 0 9.6h6.89a4.8 4.8 0 0 0 0-9.6zm0 0"/>
    <path d="M112.78 143.44a4.8 4.8 0 0 0 4.8 4.8h6.89a4.8 4.8 0 0 0 0-9.6h-6.89a4.8 4.8 0 0 0-4.8 4.8zm0 0"/>
    <path d="M75.83 10.1a16.66 16.66 0 0 1-5.89 1.09 26.43 26.43 0 0 0-26.4 26 5 5 0 0 0 4.4 5.15 4.8 4.8 0 0 0 5.19-4.78 16.86 16.86 0 0 1 16.8-16.8 26.29 26.29 0 0 0 18-7.09 4.82 4.82 0 0 0-3.26-8.36 4.91 4.91 0 0 0-3.34 1.35 16.66 16.66 0 0 1-5.5 3.44z"/>
    <path d="M123.26 4.77a16.66 16.66 0 0 1-5.89 1.09 26.43 26.43 0 0 0-26.4 26 5 5 0 0 0 4.4 5.15 4.8 4.8 0 0 0 5.19-4.78 16.86 16.86 0 0 1 16.8-16.8 26.29 26.29 0 0 0 18-7.09 4.82 4.82 0 0 0-3.26-8.36 4.91 4.91 0 0 0-3.34 1.35 16.66 16.66 0 0 1-5.5 3.44z"/>
</symbol><symbol id="icon-for-5" viewBox="0 0 387.42 333.28">
    <title>
        for-5
    </title>
    <path d="M69.76 241.6a49.81 49.81 0 0 0 47.31-33.84h-94.7a49.83 49.83 0 0 0 47.39 33.84z"/>
    <path d="M25.04 187.44h90.17L70.54 66.22l-45.5 121.22z"/>
    <path d="M318.24 241.6a49.67 49.67 0 0 0 47.32-33.84h-94.71a49.83 49.83 0 0 0 47.39 33.84z"/>
    <path d="M362.97 187.44L318.3 66.22l-45.49 121.22h90.16z"/>
    <path d="M248.92 201.39a66.88 66.88 0 0 0 22.53 43.69 70.64 70.64 0 0 0 46.82 17.63 69.67 69.67 0 0 0 69.19-61.12c.05-2.15-2.78-11.83-27.3-80C348.4 89.07 336.46 56.38 333 47h6.82a2 2 0 0 0 2-2V27.8a2 2 0 0 0-2-2H204.24V10.4A10.36 10.36 0 0 0 193.88 0a10.36 10.36 0 0 0-10.36 10.36v15.4H47.92a2 2 0 0 0-2 2V45a2 2 0 0 0 2 2h6.89C18.44 145.79 0 196.61 0 198.09c1.73 36.24 32.26 64.62 69.52 64.62 36.92 0 67.84-28.37 70.4-64.58v-.14c0-.49 0-1.38-55.53-151h99V312H108q-1.74 0-3.45.14c-13.41 1.1-12.41 21.14 1 21.14h175.53c13.72 0 14.33-20.63.62-21.17h-77.38V47h99.06c-3.44 9.42-15.38 42.09-27.09 74.6-24.45 67.84-27.39 77.61-27.37 79.79zM69.76 241.6a49.83 49.83 0 0 1-47.39-33.84h94.7a49.81 49.81 0 0 1-47.31 33.84zm45.45-54.16H25L70.5 66.22zm203 54.16a49.83 49.83 0 0 1-47.39-33.84h94.71a49.67 49.67 0 0 1-47.29 33.84zm.06-175.38L363 187.44h-90.19z"/>
</symbol><symbol id="icon-for-6" viewBox="0 0 384.63 398">
    <title>
        for-6
    </title>
    <path d="M192.79 268.16h23.49v6h-23.49z"/>
    <path d="M104.39 71.04v59.12h214.32l32.54-29.56-32.54-29.56H104.39z"/>
    <path d="M66.92 268.16l-29.73-27.02-3.81 3.46 32.54 29.56h104.14v-6H66.92z"/>
    <path d="M383.67 98.37l-55-49.2a3 3 0 0 0-2-.76H192.79v-37A11.36 11.36 0 0 0 181.43 0a11.36 11.36 0 0 0-11.36 11.36v37h-85.4a3 3 0 0 0-3 3v98.4a3 3 0 0 0 3 3h85.4v39.6h22.72V152.8h133.8a3 3 0 0 0 2-.76l55-49.2a3 3 0 0 0 .08-4.47zm-65 31.79H104.39V71h214.28l32.54 29.56z"/>
    <path d="M170.07 386.64A11.36 11.36 0 0 0 181.43 398a11.36 11.36 0 0 0 11.36-11.36V296.8h-22.72v89.84z"/>
    <path d="M170.06 268.16v-53.12H65.92l-28.73 26.1 29.73 27.02h103.14z"/>
    <path d="M192.79 215.04h23.49v53.12h-23.49z"/>
    <path d="M217.28 209v59.12h-1v6h-23.49v22.68H236a3 3 0 0 0 3-3v-98.4a3 3 0 0 0-3-3h-43.21V209h24.49z"/>
    <path d="M65.92 274.16L33.39 244.6l3.8-3.45-2.8-2.55L66.92 209h103.15v-16.6h-112a3 3 0 0 0-2 .76l-55 49.2a3 3 0 0 0 0 4.47l55 49.2a3 3 0 0 0 2 .76h112v-22.63H65.92z"/>
    <path d="M170.06 192.4h22.72v16.64h-22.72z"/>
    <path d="M170.06 274.16h22.72v22.64h-22.72z"/>
    <path d="M34.38 238.6l2.81 2.54 28.73-26.1h104.14v-6H66.92L34.38 238.6z"/>
    <path d="M216.28 215.04v53.12h1v-59.12h-24.49v6h23.49z"/>
    <path d="M170.06 209.04h22.72v6h-22.72z"/>
    <path d="M237.29 290.8h-21.73"/>
    <path d="M192.84 290.8h-85.55"/>
    <path d="M215.56 290.8h-22.72"/>
</symbol><symbol id="icon-logo-text" viewBox="0 0 76.27 10.09">
    <title>
        logo-text
    </title>
    <path d="M18.45 9.97h-7.67a.21.21 0 0 1-.21-.27l2-8.35a1.9 1.9 0 0 1 .31-.72 1.41 1.41 0 0 1 .47-.4 1.92 1.92 0 0 1 .59-.19 4.52 4.52 0 0 1 .68-.05 4.29 4.29 0 0 1 .67.05 1.87 1.87 0 0 1 .59.2 1.41 1.41 0 0 1 .47.41 2 2 0 0 1 .32.74l2 8.31a.21.21 0 0 1-.22.27zm-5.37-2.35l-.13.61a.21.21 0 0 0 .21.26h3.11a.21.21 0 0 0 .21-.26l-.13-.61-1.22-5.69a.73.73 0 0 0-.09-.23.33.33 0 0 0-.3-.14.41.41 0 0 0-.4.37L13.1 7.61z"/>
    <path d="M23.66 10.09h-1.68l-.71-.06-.51-.07a.31.31 0 0 1-.19-.08.32.32 0 0 1 0-.2V.54a.29.29 0 0 1 0-.2.3.3 0 0 1 .18-.07l.53-.08.71-.06h1.68a5.71 5.71 0 0 1 1.79.26 3.26 3.26 0 0 1 2.12 2.06 5.32 5.32 0 0 1 .29 1.84v1.78a5.35 5.35 0 0 1-.29 1.84 3.41 3.41 0 0 1-.82 1.29 3.36 3.36 0 0 1-1.3.76 5.77 5.77 0 0 1-1.8.13zm0-8.48h-1a.21.21 0 0 0-.19.21v6.4a.21.21 0 0 0 .19.21h1a3.45 3.45 0 0 0 .9-.11 1.63 1.63 0 0 0 .73-.42 2 2 0 0 0 .47-.8 4.07 4.07 0 0 0 .16-1.22V4.11a4.09 4.09 0 0 0-.16-1.21 1.93 1.93 0 0 0-.47-.81 1.68 1.68 0 0 0-.73-.42 3.37 3.37 0 0 0-.9-.06z"/>
    <path d="M44.88 10.09a5 5 0 0 1-1.54-.23 3.11 3.11 0 0 1-1.22-.72 3.47 3.47 0 0 1-.82-1.3 5.64 5.64 0 0 1-.3-2V4.19a5.63 5.63 0 0 1 .3-2 3.43 3.43 0 0 1 .82-1.3 3.16 3.16 0 0 1 1.22-.72 5.19 5.19 0 0 1 3.07 0 3.16 3.16 0 0 1 1.22.72 3.45 3.45 0 0 1 .82 1.3 5.67 5.67 0 0 1 .3 2v1.65a5.67 5.67 0 0 1-.3 2 3.48 3.48 0 0 1-.82 1.3 3.1 3.1 0 0 1-1.21.72 5 5 0 0 1-1.54.23zm0-8.46a1.7 1.7 0 0 0-1.45.64 3.25 3.25 0 0 0-.46 1.94v1.65a3.25 3.25 0 0 0 .46 1.94 1.7 1.7 0 0 0 1.45.64 1.72 1.72 0 0 0 1.46-.64 3.21 3.21 0 0 0 .46-1.94V4.21a3.21 3.21 0 0 0-.46-1.94 1.72 1.72 0 0 0-1.46-.64z"/>
    <path d="M8.85.19a.29.29 0 0 0-.22-.07H7.34a.45.45 0 0 0-.43.27L4.8 4.3a.43.43 0 0 1-.34.3.42.42 0 0 1-.34-.29L2.01.38a.43.43 0 0 0-.42-.26H.29a.31.31 0 0 0-.22.07.23.23 0 0 0-.07.19v9.38a.21.21 0 0 0 .21.21h1.44a.21.21 0 0 0 .21-.21V4.13a.29.29 0 0 1 .29-.31.34.34 0 0 1 .29.2L3.67 6.3a.25.25 0 0 0 .24.13h1.1a.23.23 0 0 0 .23-.13L6.49 4a.35.35 0 0 1 .29-.19.29.29 0 0 1 .28.32v5.62a.21.21 0 0 0 .21.21h1.44a.21.21 0 0 0 .21-.21V.39a.25.25 0 0 0-.07-.2z"/>
    <path d="M38.8.19a.29.29 0 0 0-.22-.07h-1.29a.45.45 0 0 0-.43.27L34.75 4.3a.43.43 0 0 1-.34.3.42.42 0 0 1-.34-.29L31.96.37a.43.43 0 0 0-.42-.26h-1.3a.31.31 0 0 0-.22.07.23.23 0 0 0-.07.19v9.38a.21.21 0 0 0 .21.21h1.44a.21.21 0 0 0 .21-.21V4.12a.29.29 0 0 1 .29-.31.34.34 0 0 1 .29.2l1.24 2.27a.25.25 0 0 0 .24.13h1.14a.23.23 0 0 0 .23-.13l1.25-2.3a.35.35 0 0 1 .29-.19.29.29 0 0 1 .28.32v5.62a.21.21 0 0 0 .21.21h1.43a.21.21 0 0 0 .21-.21V.37a.25.25 0 0 0-.11-.18z"/>
    <rect x="147.9" y="116.67" width=".13" transform="rotate(-84.96 44.197 113.001)"/>
    <path d="M56.83 6.02a.29.29 0 0 1-.28.33.38.38 0 0 1-.3-.21L52.97.44a.92.92 0 0 0-.2-.27.3.3 0 0 0-.2-.06h-1.4a.31.31 0 0 0-.32.31v9.33a.21.21 0 0 0 .21.21h1.35a.21.21 0 0 0 .21-.21V4.3a.29.29 0 0 1 .3-.32.42.42 0 0 1 .29.22l3.15 5.44a.64.64 0 0 0 .24.27.71.71 0 0 0 .3.06h1.36a.32.32 0 0 0 .23-.09.29.29 0 0 0 .09-.22V.3a.21.21 0 0 0-.21-.21h-1.36a.21.21 0 0 0-.21.21V6z"/>
    <path d="M65.25 4.81L68.32.45a.21.21 0 0 0-.17-.33h-1.67a.2.2 0 0 0-.17.09l-2.86 4.21h-.57V.3a.21.21 0 0 0-.21-.21h-1.52a.21.21 0 0 0-.21.21v9.44a.21.21 0 0 0 .21.21h1.53a.21.21 0 0 0 .21-.21V5.46h.49l2.71 4.39a.21.21 0 0 0 .18.1h1.86a.21.21 0 0 0 .17-.32l-3.06-4.6a.21.21 0 0 1 .01-.22z"/>
    <path d="M75.9 5.85a3.38 3.38 0 0 0-1.39-1.19l-1.77-1-.47-.28a1.72 1.72 0 0 1-.32-.25.88.88 0 0 1-.19-.28.92.92 0 0 1-.06-.34.85.85 0 0 1 .33-.73 1.63 1.63 0 0 1 1-.22H74.71l1 .06a.21.21 0 0 0 .22-.2l.06-1.06a.21.21 0 0 0-.16-.21l-.41-.08-.73-.1-.83-.07h-.8a5.69 5.69 0 0 0-1.62.2 2.7 2.7 0 0 0-1 .53 1.84 1.84 0 0 0-.53.77 3 3 0 0 0-.16 1 3.17 3.17 0 0 0 .07.68 2.29 2.29 0 0 0 .24.62 2.63 2.63 0 0 0 .46.59 4 4 0 0 0 .76.56l1.9 1.13a3.21 3.21 0 0 1 .78.58 1 1 0 0 1 .24.66 1.15 1.15 0 0 1-.33.89 1.65 1.65 0 0 1-1.11.29h-1.31l-1.14-.1a.21.21 0 0 0-.22.21v1.08a.21.21 0 0 0 .16.2 10.15 10.15 0 0 0 1 .19 11.37 11.37 0 0 0 1.43.08 4.94 4.94 0 0 0 1.7-.25 3.16 3.16 0 0 0 1.1-.65 2.28 2.28 0 0 0 .59-.89 3 3 0 0 0 .18-1 2.87 2.87 0 0 0-.35-1.42z"/>
</symbol><symbol id="icon-logo" viewBox="0 0 26.7 37.63">
    <title>
        logo
    </title>
    <path d="M23.89 19.98a6 6 0 0 0 .5-2.38v-.89a11 11 0 0 0-5.62-9.61C17.88 3.88 16 0 13.35 0S8.82 3.88 7.93 7.1a11 11 0 0 0-5.62 9.61v.89a6 6 0 0 0 .5 2.38 6.13 6.13 0 0 0 3.33 11.33h14.42a6.13 6.13 0 0 0 3.33-11.33zM6.14 29.15a4 4 0 0 1-2.16-7.41 6 6 0 0 0 4.28 1.85h10.1a6 6 0 0 0 4.32-1.85 4 4 0 0 1-2.16 7.41H6.14zM4.43 17.6v-.89a8.89 8.89 0 0 1 2.92-6.59v.44a3.15 3.15 0 0 0 .62 2 7.09 7.09 0 0 0-1.41 4.26 2.49 2.49 0 0 0 2.46 2.49h3.24v2.12h-4a3.84 3.84 0 0 1-1.64-.37 3.89 3.89 0 0 1-1.91-2 3.85 3.85 0 0 1-.28-1.46zm6-11.54c.79-2.1 1.92-3.94 2.89-3.94s2.1 1.85 2.89 3.94c.15.41.29.82.42 1.24s.24.87.33 1.28a9.7 9.7 0 0 1 .26 2 2.27 2.27 0 0 1-.05.53.49.49 0 0 1-.06.16 1 1 0 0 1-.46.06 11.5 11.5 0 0 1-1.21-.1l-.68-.07c-.43 0-.89-.08-1.38-.08a15 15 0 0 0-1.56.09l-.51.06a12.35 12.35 0 0 1-1.25.1c-.37 0-.53 0-.59-.2a2 2 0 0 1 0-.55 9.7 9.7 0 0 1 .26-2c.09-.42.2-.85.33-1.28s.2-.84.4-1.24zm11.83 10.65v.89a3.87 3.87 0 0 1-.93 2.51 3.89 3.89 0 0 1-1.3 1 3.84 3.84 0 0 1-1.64.37h-4v-2.17h3.27a2.49 2.49 0 0 0 2.48-2.48v-.12a6.76 6.76 0 0 0-1.39-4.11 3.12 3.12 0 0 0 .61-2v-.44a8.89 8.89 0 0 1 2.9 6.55zm-12.19-3.27a13.66 13.66 0 0 0 1.49-.12 16.22 16.22 0 0 1 1.83-.14 15.82 15.82 0 0 1 1.87.13 13.13 13.13 0 0 0 1.45.11 4.67 4.67 0 0 1 1.34 3.27v.17a.36.36 0 0 1-.36.36H9.02a.36.36 0 0 1-.36-.36 5 5 0 0 1 1.39-3.44z"/>
    <path d="M20.43 24.53H6.26a1.06 1.06 0 0 0 0 2.12h14.17a1.06 1.06 0 0 0 0-2.12z"/>
    <ellipse cx="13.33" cy="36.84" rx="6.85" ry=".79"/>
</symbol><symbol id="icon-mail" viewBox="0 0 386.64 294.24">
    <title>
        mail
    </title>
    <path d="M339.44 0H47.28A47.32 47.32 0 0 0 0 47.28V247a47.32 47.32 0 0 0 47.28 47.28h292.08A47.32 47.32 0 0 0 386.64 247V47.36A47.27 47.27 0 0 0 339.44 0zm25.68 247a25.71 25.71 0 0 1-25.68 25.68H47.28A25.71 25.71 0 0 1 21.6 247V47.36a25.71 25.71 0 0 1 25.68-25.68h292.08A25.71 25.71 0 0 1 365 47.36V247h.08zm0 0"/>
    <path d="M243.84 144.64l94.56-84.8a10.82 10.82 0 1 0-14.48-16.08l-130.4 117-25.44-22.72a.41.41 0 0 1-.16-.24 16.43 16.43 0 0 0-1.76-1.52L62.64 43.68a10.822 10.822 0 1 0-14.4 16.16l95.68 85.52-95.28 89.2a10.84 10.84 0 0 0-.48 15.28 11.06 11.06 0 0 0 7.92 3.44 10.83 10.83 0 0 0 7.36-2.88l96.72-90.48 26.24 23.44a10.78 10.78 0 0 0 14.4-.08l27-24.16 96.16 91.36a10.82 10.82 0 0 0 15.28-.4 10.84 10.84 0 0 0-.4-15.28zm0 0"/>
</symbol><symbol id="icon-phone" viewBox="0 0 378.49 379.04">
    
    <title>
        phone
    </title>
    <g clip-path="url(#a)">
        <path d="M299.29 234.81c-7.76-8.08-17.12-12.4-27-12.4s-19.29 4.24-27.4 12.32l-25.28 25.2c-2.08-1.12-4.16-2.16-6.16-3.2-2.88-1.44-5.6-2.8-7.92-4.24-23.68-15-45.2-34.64-65.84-60-10-12.64-16.72-23.28-21.6-34.08 6.56-6 12.64-12.24 18.56-18.24 2.24-2.24 4.48-4.56 6.72-6.8 16.8-16.8 16.8-38.56 0-55.36l-21.84-21.88c-2.48-2.48-5-5-7.44-7.6-4.8-5-9.84-10.08-15-14.88-7.76-7.68-17-11.76-26.8-11.76s-19.2 4.08-27.2 11.76l-.16.16-27.2 27.44A58.53 58.53 0 0 0 .37 98.45c-1.92 23.36 5 45.12 10.24 59.36 13 35 32.32 67.36 61.2 102.08 35 41.84 77.2 74.88 125.36 98.16 18.4 8.72 43 19 70.4 20.8 1.68.08 3.44.16 5 .16 18.48 0 34-6.64 46.16-19.84.08-.16.24-.24.32-.4a181.17 181.17 0 0 1 14-14.48c3.44-3.28 7-6.72 10.4-10.32 7.92-8.24 12.08-17.84 12.08-27.68s-4.24-19.44-12.32-27.44zm28.64 84.24c-.08 0-.08.08 0 0-3.12 3.36-6.32 6.4-9.76 9.76a210.32 210.32 0 0 0-15.44 16c-8.08 8.64-17.6 12.72-30.08 12.72-1.2 0-2.48 0-3.68-.08-23.76-1.52-45.84-10.8-62.4-18.72a355.41 355.41 0 0 1-118.08-92.48c-27.28-32.88-45.52-63.28-57.6-95.92-7.44-19.92-10.16-35.44-9-50.08a36.71 36.71 0 0 1 11-23.76l27.28-27.28c3.92-3.68 8.08-5.68 12.16-5.68 5 0 9.12 3 11.68 5.6l.24.24c4.88 4.56 9.52 9.28 14.4 14.32 2.48 2.56 5 5.12 7.6 7.76l21.84 21.84c8.48 8.48 8.48 16.32 0 24.8-2.32 2.32-4.56 4.64-6.88 6.88-6.72 6.88-13.12 13.28-20.08 19.52a2 2 0 0 0-.4.4c-6.88 6.88-5.6 13.6-4.16 18.16l.24.72c5.68 13.76 13.68 26.72 25.84 42.16l.08.08c22.08 27.2 45.36 48.4 71 64.64a108.11 108.11 0 0 0 9.84 5.36c2.88 1.44 5.6 2.8 7.92 4.24.32.16.64.4 1 .56a17.34 17.34 0 0 0 7.92 2c6.64 0 10.8-4.16 12.16-5.52L260 249.93c2.72-2.72 7-6 12.08-6s9 3.12 11.52 5.84l44.24 44.24c8.24 8.16 8.24 16.56.08 25zm0 0"/>
        <path d="M204.57 90.13a103 103 0 0 1 83.84 83.84 10.73 10.73 0 0 0 10.64 9 14.71 14.71 0 0 0 1.84-.16 10.81 10.81 0 0 0 8.88-12.48A124.5 124.5 0 0 0 208.33 68.89a10.86 10.86 0 0 0-12.48 8.8 10.68 10.68 0 0 0 8.72 12.44zm0 0"/>
        <path d="M378.33 167.21a205 205 0 0 0-167-167 10.79 10.79 0 1 0-3.52 21.28 183.11 183.11 0 0 1 149.24 149.24 10.73 10.73 0 0 0 10.64 9 13.86 13.86 0 0 0 1.84-.16 10.6 10.6 0 0 0 8.8-12.32zm0 0"/>
    </g>
</symbol></svg>