<svg xmlns="http://www.w3.org/2000/svg"><symbol id="icon-logo_full-original" viewBox="0 0 111.51 37.63">
    <title>
        logo_full-container
    </title>
    <path d="M23.89 19.98a6 6 0 0 0 .5-2.38v-.89a11 11 0 0 0-5.62-9.61C17.88 3.88 16 0 13.35 0S8.82 3.88 7.93 7.1a11 11 0 0 0-5.62 9.61v.89a6 6 0 0 0 .5 2.38 6.13 6.13 0 0 0 3.33 11.33h14.42a6.13 6.13 0 0 0 3.33-11.33zM6.14 29.15a4 4 0 0 1-2.16-7.41 6 6 0 0 0 4.28 1.85h10.1a6 6 0 0 0 4.32-1.85 4 4 0 0 1-2.16 7.41H6.14zM4.43 17.6v-.89a8.89 8.89 0 0 1 2.92-6.59v.44a3.15 3.15 0 0 0 .62 2 7.09 7.09 0 0 0-1.41 4.26 2.49 2.49 0 0 0 2.46 2.49h3.24v2.12h-4a3.84 3.84 0 0 1-1.64-.37 3.89 3.89 0 0 1-1.91-2 3.85 3.85 0 0 1-.28-1.46zm6-11.54c.79-2.1 1.92-3.94 2.89-3.94s2.1 1.85 2.89 3.94c.15.41.29.82.42 1.24s.24.87.33 1.28a9.7 9.7 0 0 1 .26 2 2.27 2.27 0 0 1-.05.53.49.49 0 0 1-.06.16 1 1 0 0 1-.46.06 11.5 11.5 0 0 1-1.21-.1l-.68-.07c-.43 0-.89-.08-1.38-.08a15 15 0 0 0-1.56.09l-.51.06a12.35 12.35 0 0 1-1.25.1c-.37 0-.53 0-.59-.2a2 2 0 0 1 0-.55 9.7 9.7 0 0 1 .26-2c.09-.42.2-.85.33-1.28s.2-.84.4-1.24zm11.83 10.65v.89a3.87 3.87 0 0 1-.93 2.51 3.89 3.89 0 0 1-1.3 1 3.84 3.84 0 0 1-1.64.37h-4v-2.17h3.27a2.49 2.49 0 0 0 2.48-2.48v-.12a6.76 6.76 0 0 0-1.39-4.11 3.12 3.12 0 0 0 .61-2v-.44a8.89 8.89 0 0 1 2.9 6.55zm-12.19-3.27a13.66 13.66 0 0 0 1.49-.12 16.22 16.22 0 0 1 1.83-.14 15.82 15.82 0 0 1 1.87.13 13.13 13.13 0 0 0 1.45.11 4.67 4.67 0 0 1 1.34 3.27v.17a.36.36 0 0 1-.36.36H9.02a.36.36 0 0 1-.36-.36 5 5 0 0 1 1.39-3.44z" fill="#f16923"/>
    <path d="M20.43 24.53H6.26a1.06 1.06 0 0 0 0 2.12h14.17a1.06 1.06 0 0 0 0-2.12z" fill="#f16923"/>
    <ellipse cx="13.33" cy="36.84" rx="6.85" ry=".79" fill="#4b2f27"/>
    <path d="M53.7 23.98h-7.67a.21.21 0 0 1-.21-.27l2-8.35a1.9 1.9 0 0 1 .31-.72 1.41 1.41 0 0 1 .47-.4 1.92 1.92 0 0 1 .59-.19 4.52 4.52 0 0 1 .68-.05 4.29 4.29 0 0 1 .67.05 1.87 1.87 0 0 1 .59.2 1.41 1.41 0 0 1 .47.41 2 2 0 0 1 .32.74l2 8.31a.21.21 0 0 1-.22.27zm-5.37-2.35l-.13.61a.21.21 0 0 0 .21.26h3.11a.21.21 0 0 0 .21-.26l-.13-.61-1.22-5.69a.73.73 0 0 0-.09-.23.33.33 0 0 0-.3-.14.41.41 0 0 0-.4.37l-1.24 5.68z" fill="#3f2222"/>
    <path d="M58.91 24.1h-1.68l-.71-.06-.51-.07a.31.31 0 0 1-.19-.08.32.32 0 0 1 0-.2v-9.14a.29.29 0 0 1 0-.2.3.3 0 0 1 .18-.07l.53-.08.71-.06h1.68a5.71 5.71 0 0 1 1.79.26 3.26 3.26 0 0 1 2.12 2.06 5.32 5.32 0 0 1 .29 1.84v1.78a5.35 5.35 0 0 1-.29 1.84 3.41 3.41 0 0 1-.82 1.29 3.36 3.36 0 0 1-1.3.76 5.77 5.77 0 0 1-1.8.13zm0-8.48h-1a.21.21 0 0 0-.19.21v6.4a.21.21 0 0 0 .19.21h1a3.45 3.45 0 0 0 .9-.11 1.63 1.63 0 0 0 .73-.42 2 2 0 0 0 .47-.8 4.07 4.07 0 0 0 .16-1.22v-1.77a4.09 4.09 0 0 0-.16-1.21 1.93 1.93 0 0 0-.47-.81 1.68 1.68 0 0 0-.73-.42 3.37 3.37 0 0 0-.9-.06z" fill="#3f2222"/>
    <path d="M80.13 24.1a5 5 0 0 1-1.54-.23 3.11 3.11 0 0 1-1.22-.72 3.47 3.47 0 0 1-.82-1.3 5.64 5.64 0 0 1-.3-2V18.2a5.63 5.63 0 0 1 .3-2 3.43 3.43 0 0 1 .82-1.3 3.16 3.16 0 0 1 1.22-.72 5.19 5.19 0 0 1 3.07 0 3.16 3.16 0 0 1 1.22.72 3.45 3.45 0 0 1 .82 1.3 5.67 5.67 0 0 1 .3 2v1.65a5.67 5.67 0 0 1-.3 2 3.48 3.48 0 0 1-.82 1.3 3.1 3.1 0 0 1-1.21.72 5 5 0 0 1-1.54.23zm0-8.46a1.7 1.7 0 0 0-1.45.64 3.25 3.25 0 0 0-.46 1.94v1.65a3.25 3.25 0 0 0 .46 1.94 1.7 1.7 0 0 0 1.45.64 1.72 1.72 0 0 0 1.46-.64 3.21 3.21 0 0 0 .46-1.94v-1.65a3.21 3.21 0 0 0-.46-1.94 1.72 1.72 0 0 0-1.46-.64z" fill="#3f2222"/>
    <path d="M44.1 14.2a.29.29 0 0 0-.22-.07h-1.29a.45.45 0 0 0-.43.27l-2.11 3.91a.43.43 0 0 1-.34.3.42.42 0 0 1-.34-.29l-2.11-3.93a.43.43 0 0 0-.42-.26h-1.3a.31.31 0 0 0-.22.07.23.23 0 0 0-.07.19v9.38a.21.21 0 0 0 .21.21h1.44a.21.21 0 0 0 .21-.21v-5.63a.29.29 0 0 1 .29-.31.34.34 0 0 1 .29.2l1.23 2.28a.25.25 0 0 0 .24.13h1.1a.23.23 0 0 0 .23-.13l1.25-2.3a.35.35 0 0 1 .29-.19.29.29 0 0 1 .28.32v5.62a.21.21 0 0 0 .21.21h1.44a.21.21 0 0 0 .21-.21V14.4a.25.25 0 0 0-.07-.2z" fill="#3f2222"/>
    <path d="M74.05 14.2a.29.29 0 0 0-.22-.07h-1.29a.45.45 0 0 0-.43.27L70 18.31a.43.43 0 0 1-.34.3.42.42 0 0 1-.34-.29l-2.11-3.94a.43.43 0 0 0-.42-.26h-1.3a.31.31 0 0 0-.22.07.23.23 0 0 0-.07.19v9.38a.21.21 0 0 0 .21.21h1.44a.21.21 0 0 0 .21-.21v-5.63a.29.29 0 0 1 .29-.31.34.34 0 0 1 .29.2l1.24 2.27a.25.25 0 0 0 .24.13h1.14a.23.23 0 0 0 .23-.13l1.25-2.3a.35.35 0 0 1 .29-.19.29.29 0 0 1 .28.32v5.62a.21.21 0 0 0 .21.21h1.43a.21.21 0 0 0 .21-.21v-9.36a.25.25 0 0 0-.11-.18z" fill="#3f2222"/>
    <rect x="147.9" y="116.67" width=".13" transform="rotate(-84.96 69.472 100.769)" fill="#3f2222"/>
    <path d="M92.08 20.03a.29.29 0 0 1-.28.33.38.38 0 0 1-.3-.21l-3.28-5.7a.92.92 0 0 0-.2-.27.3.3 0 0 0-.2-.06h-1.4a.31.31 0 0 0-.32.31v9.33a.21.21 0 0 0 .21.21h1.35a.21.21 0 0 0 .21-.21v-5.45a.29.29 0 0 1 .3-.32.42.42 0 0 1 .29.22l3.15 5.44a.64.64 0 0 0 .24.27.71.71 0 0 0 .3.06h1.36a.32.32 0 0 0 .23-.09.29.29 0 0 0 .09-.22v-9.36a.21.21 0 0 0-.21-.21h-1.36a.21.21 0 0 0-.21.21v5.7z" fill="#3f2222"/>
    <path d="M100.5 18.82l3.07-4.36a.21.21 0 0 0-.17-.33h-1.67a.2.2 0 0 0-.17.09l-2.86 4.21h-.57v-4.12a.21.21 0 0 0-.21-.21H96.4a.21.21 0 0 0-.21.21v9.44a.21.21 0 0 0 .21.21h1.53a.21.21 0 0 0 .21-.21v-4.28h.49l2.71 4.39a.21.21 0 0 0 .18.1h1.86a.21.21 0 0 0 .17-.32l-3.06-4.6a.21.21 0 0 1 .01-.22z" fill="#3f2222"/>
    <path d="M111.15 19.86a3.38 3.38 0 0 0-1.39-1.19l-1.77-1-.47-.28a1.72 1.72 0 0 1-.32-.25.88.88 0 0 1-.19-.28.92.92 0 0 1-.06-.34.85.85 0 0 1 .33-.73 1.63 1.63 0 0 1 1-.22H109.96l1 .06a.21.21 0 0 0 .22-.2l.06-1.06a.21.21 0 0 0-.16-.21l-.41-.08-.73-.1-.83-.07h-.8a5.69 5.69 0 0 0-1.62.2 2.7 2.7 0 0 0-1 .53 1.84 1.84 0 0 0-.53.77 3 3 0 0 0-.16 1 3.17 3.17 0 0 0 .07.68 2.29 2.29 0 0 0 .24.62 2.63 2.63 0 0 0 .46.59 4 4 0 0 0 .76.56l1.9 1.13a3.21 3.21 0 0 1 .78.58 1 1 0 0 1 .24.66 1.15 1.15 0 0 1-.33.89 1.65 1.65 0 0 1-1.11.29h-1.31l-1.14-.1a.21.21 0 0 0-.22.21v1.08a.21.21 0 0 0 .16.2 10.15 10.15 0 0 0 1 .19 11.37 11.37 0 0 0 1.43.08 4.94 4.94 0 0 0 1.7-.25 3.16 3.16 0 0 0 1.1-.65 2.28 2.28 0 0 0 .59-.89 3 3 0 0 0 .18-1 2.87 2.87 0 0 0-.35-1.42z" fill="#3f2222"/>
</symbol></svg>