<svg id="Слой_1" data-name="Слой 1" xmlns="http://www.w3.org/2000/svg" viewBox="0 0 384.63 398"><title>for-6</title><rect x="192.79" y="268.16" width="23.49" height="6" style="fill:none"/><polygon points="104.39 71.04 104.39 130.16 318.71 130.16 351.25 100.6 318.71 71.04 104.39 71.04" style="fill:none"/><polygon points="66.92 268.16 37.19 241.14 33.38 244.6 65.92 274.16 170.06 274.16 170.06 268.16 66.92 268.16" style="fill:none"/><path d="M650,399.37l-55-49.2a3,3,0,0,0-2-.76H459.12v-37A11.36,11.36,0,0,0,447.76,301h0a11.36,11.36,0,0,0-11.36,11.36v37H351a3,3,0,0,0-3,3v98.4a3,3,0,0,0,3,3h85.4v39.6h22.72V453.8h133.8a3,3,0,0,0,2-.76l55-49.2A3,3,0,0,0,650,399.37ZM585,431.16H370.72V372H585l32.54,29.56Z" transform="translate(-266.33 -301)"/><path d="M436.4,687.64A11.36,11.36,0,0,0,447.76,699h0a11.36,11.36,0,0,0,11.36-11.36V597.8H436.4v89.84Z" transform="translate(-266.33 -301)"/><polygon points="170.06 268.16 170.06 215.04 65.92 215.04 37.19 241.14 66.92 268.16 170.06 268.16" style="fill:none"/><rect x="192.79" y="215.04" width="23.49" height="53.12" style="fill:none"/><path d="M483.61,510v59.12h-1v6H459.12V597.8h43.21a3,3,0,0,0,3-3V496.4a3,3,0,0,0-3-3H459.12V510h24.49Z" transform="translate(-266.33 -301)"/><path d="M332.25,575.16L299.72,545.6l3.8-3.45-2.8-2.55L333.25,510H436.4V493.4h-112a3,3,0,0,0-2,.76l-55,49.2a3,3,0,0,0,0,4.47l55,49.2a3,3,0,0,0,2,.76h112V575.16H332.25Z" transform="translate(-266.33 -301)"/><rect x="170.06" y="192.4" width="22.72" height="16.64"/><rect x="170.06" y="274.16" width="22.72" height="22.64"/><polygon points="34.38 238.6 37.19 241.14 65.92 215.04 170.06 215.04 170.06 209.04 66.92 209.04 34.38 238.6"/><polygon points="216.28 215.04 216.28 268.16 217.28 268.16 217.28 209.04 192.79 209.04 192.79 215.04 216.28 215.04"/><rect x="170.06" y="209.04" width="22.72" height="6"/><line x1="237.29" y1="290.8" x2="215.56" y2="290.8"/><line x1="192.84" y1="290.8" x2="107.29" y2="290.8"/><line x1="215.56" y1="290.8" x2="192.84" y2="290.8"/></svg>